<svg xmlns="http://www.w3.org/2000/svg" width="23.279" height="23.279" viewBox="0 0 23.279 23.279"><path d="M14.513,10.671,13.232,9.391,7.47,3.629A2.716,2.716,0,0,0,3.629,7.47l5.762,5.764a.6.6,0,0,0,.854-.854L4.482,6.616A1.509,1.509,0,0,1,6.616,4.482l5.764,5.762,1.281,1.28a2.717,2.717,0,1,1-3.843,3.842L8.751,14.3,2.775,8.324,2.348,7.9A3.924,3.924,0,0,1,7.9,2.348l6.4,6.4a.6.6,0,1,0,.854-.854l-6.4-6.4A5.131,5.131,0,0,0,1.494,8.751l6.4,6.4L8.965,16.22a3.924,3.924,0,0,0,5.548-5.549Zm0,0" transform="translate(11.036 23.279) rotate(-135)" fill="#c0922e"/></svg>