<svg xmlns="http://www.w3.org/2000/svg" width="17.804" height="17.804" viewBox="0 0 17.804 17.804"><g transform="translate(30.15 33.15)"><g transform="translate(-30 -33)"><g transform="translate(0 1.459)"><g transform="translate(0 0)"><path d="M15.681,18.045H1.823A1.825,1.825,0,0,1,0,16.222V3.823A1.825,1.825,0,0,1,1.823,2H15.681A1.825,1.825,0,0,1,17.5,3.823v12.4A1.825,1.825,0,0,1,15.681,18.045ZM1.823,2.729A1.1,1.1,0,0,0,.729,3.823v12.4a1.1,1.1,0,0,0,1.094,1.094H15.681a1.1,1.1,0,0,0,1.094-1.094V3.823a1.1,1.1,0,0,0-1.094-1.094Z" transform="translate(0 -2)" fill="#626262" stroke="#626262" stroke-width="0.3"/></g></g><g transform="translate(0 5.105)"><path d="M17.139,7.729H.365A.365.365,0,0,1,.365,7H17.139a.365.365,0,1,1,0,.729Z" transform="translate(0 -7)" fill="#626262" stroke="#626262" stroke-width="0.3"/></g><g transform="translate(3.647)"><path d="M5.365,3.647A.365.365,0,0,1,5,3.282V.365a.365.365,0,0,1,.729,0V3.282A.365.365,0,0,1,5.365,3.647Z" transform="translate(-5)" fill="#626262" stroke="#626262" stroke-width="0.3"/></g><g transform="translate(13.128)"><g transform="translate(0)"><path d="M18.365,3.647A.365.365,0,0,1,18,3.282V.365a.365.365,0,1,1,.729,0V3.282A.365.365,0,0,1,18.365,3.647Z" transform="translate(-18)" fill="#626262" stroke="#626262" stroke-width="0.3"/></g></g></g></g></svg>