<svg xmlns="http://www.w3.org/2000/svg" width="7.371" height="13.185" viewBox="0 0 7.371 13.185"><g transform="translate(0.025 -0.024)"><g transform="translate(-0.025 0.024)"><path d="M3.052,1.96c0-.473-.006-.913,0-1.354a.6.6,0,0,1,.52-.576.605.605,0,0,1,.655.387,1.014,1.014,0,0,1,.048.321c.005.4,0,.792,0,1.221h.346A2.626,2.626,0,0,1,7.307,4.574a.61.61,0,1,1-1.22.029,1.429,1.429,0,0,0-.512-1.092A1.632,1.632,0,0,0,4.288,3.2V6.008a2.728,2.728,0,0,1,2.461.962,2.533,2.533,0,0,1,.595,1.757,2.577,2.577,0,0,1-.962,1.949,2.8,2.8,0,0,1-2.106.587v.362c0,.32.007.64,0,.959a.611.611,0,1,1-1.222-.015c0-.421,0-.843,0-1.3-.176,0-.339,0-.5,0A2.614,2.614,0,0,1,.092,9.288a2.977,2.977,0,0,1-.083-.607.6.6,0,0,1,.582-.652.6.6,0,0,1,.638.6,1.459,1.459,0,0,0,1.807,1.4v-2.8A2.727,2.727,0,0,1,.486,6.152,2.553,2.553,0,0,1-.021,4.48,2.571,2.571,0,0,1,.44,3.1a2.646,2.646,0,0,1,1.139-.933A3.344,3.344,0,0,1,3.052,1.96ZM3.034,5.988V3.209a1.5,1.5,0,0,0-1.58.59A1.341,1.341,0,0,0,1.4,5.3,1.514,1.514,0,0,0,3.034,5.988ZM4.288,7.242v2.78a1.5,1.5,0,0,0,1.567-.581A1.345,1.345,0,0,0,5.91,7.922,1.51,1.51,0,0,0,4.288,7.242Z" transform="translate(0.025 -0.024)"/><path d="M25.7,64.462a1.514,1.514,0,0,1-1.632-.689,1.345,1.345,0,0,1,.051-1.5,1.5,1.5,0,0,1,1.581-.59Z" transform="translate(-22.643 -58.498)" fill="#fff"/><path d="M84.24,140.752a1.51,1.51,0,0,1,1.622.68,1.345,1.345,0,0,1-.055,1.519,1.5,1.5,0,0,1-1.567.581Z" transform="translate(-79.928 -133.535)" fill="#fff"/></g></g></svg>