<svg xmlns="http://www.w3.org/2000/svg" width="142.707" height="28.398" viewBox="0 0 142.707 28.398"><path d="M78.8.086V.592c3.779.813,5.964,3,6.275,6.388h.552c-.019-2.573-.029-5.043-.179-6.894C83.5-.021,81.263-.014,78.8.086Z" transform="translate(-75.733 -0.008)" fill="#c7112b"/><path d="M78.8,510.968v-.347c3.779-.814,6.683-3.719,7-7.111l.628.048-.453,7.429Z" transform="translate(-75.733 -483.91)" fill="#c7112b"/><path d="M269,2.6c3.41.4,1.908,1.655,12.635,27.614l5.009-10.927-.584-.169c-2.758,4-2.988,3.923-4.6.008l-5.492-13.86c-.975-1.9-.078-2.725,2.368-2.667V2H269Z" transform="translate(-258.529 -1.922)" fill="#c7112b"/><path d="M263.453,504.74c-.083,2.346-.226,4.807-.453,7.429" transform="translate(-252.762 -485.092)" fill="#c7112b"/><path d="M85.97,695.119q-3.534.094-7.17-.019" transform="translate(-75.733 -668.042)" fill="#c7112b"/><path d="M0,223.07l.026.545a5.092,5.092,0,0,1,3.854,4.758h.682L4.454,218.34l-.584,0A4.876,4.876,0,0,1,0,223.07Z" transform="translate(0 -209.841)" fill="#c7112b"/><path d="M710,2a4.191,4.191,0,0,1,0,.552c3.932-.132,3.932,3.7,2.622,7.952h.529c1.723-3.854,3.426-7.8,6.051-7.968v-.49Z" transform="translate(-682.362 -1.922)" fill="#c7112b"/><path d="M997.24,574.87h.85v5.211h3.222v.74H997.24Z" transform="translate(-958.42 -552.492)" fill="#c7112b"/><path d="M1131.258,580.081v.74h-4.318v-5.95h4.2v.74h-3.348v1.83h2.983v.722h-2.983v1.921Z" transform="translate(-1083.071 -552.492)" fill="#c7112b"/><path d="M1253.23,575.61h-2.04v-.74h4.922v.74h-2.04v5.21h-.841Z" transform="translate(-1202.485 -552.492)" fill="#c7112b"/><path d="M1396.023,564.968a1.659,1.659,0,0,1-.136.6l-.408,1.19h-.534l.315-1.266a.541.541,0,0,1-.357-.527.556.556,0,0,1,.569-.578A.546.546,0,0,1,1396.023,564.968Z" transform="translate(-1340.602 -542.42)" fill="#c7112b"/><path d="M1445.09,578.507l.314-.662a3.061,3.061,0,0,0,1.964.689c1.029,0,1.471-.4,1.471-.918,0-1.454-3.6-.536-3.6-2.746,0-.918.714-1.7,2.278-1.7a3.5,3.5,0,0,1,1.912.527l-.28.68a3.074,3.074,0,0,0-1.632-.484c-1.012,0-1.445.425-1.445.943,0,1.454,3.6.545,3.6,2.729,0,.909-.731,1.691-2.3,1.691A3.542,3.542,0,0,1,1445.09,578.507Z" transform="translate(-1388.837 -550.858)" fill="#c7112b"/><path d="M1645.606,576.1h.817v2.319a3.518,3.518,0,0,1-2.252.756,3.046,3.046,0,1,1,.017-6.086,2.981,2.981,0,0,1,2.286.918l-.53.529a2.358,2.358,0,0,0-1.726-.689,2.288,2.288,0,1,0-.008,4.573,2.519,2.519,0,0,0,1.394-.383Z" transform="translate(-1577.12 -550.781)" fill="#c7112b"/><path d="M1825.978,580.82l-1.285-1.827c-.119.009-.247.017-.374.017h-1.471v1.811H1822v-5.95h2.321c1.547,0,2.482.782,2.482,2.074a1.878,1.878,0,0,1-1.309,1.879l1.411,2Zm-.026-3.876c0-.85-.57-1.334-1.658-1.334h-1.445v2.677h1.445c1.088,0,1.658-.492,1.658-1.343Z" transform="translate(-1751.075 -552.492)" fill="#c7112b"/><path d="M1968.28,576.173a3.164,3.164,0,1,1,3.17,3.043A3.024,3.024,0,0,1,1968.28,576.173Zm5.474,0a2.312,2.312,0,1,0-2.3,2.285A2.234,2.234,0,0,0,1973.754,576.173Z" transform="translate(-1891.66 -550.82)" fill="#c7112b"/><path d="M2152.428,574.87l-1.989,5.95h-.892l-1.623-4.751-1.624,4.751h-.909l-1.989-5.95h.876l1.607,4.837,1.673-4.837h.782l1.64,4.862,1.64-4.862Z" transform="translate(-2059.964 -552.492)" fill="#c7112b"/><path d="M2443.94,575.61h-2.04v-.74h4.922v.74h-2.04v5.21h-.842Z" transform="translate(-2346.843 -552.492)" fill="#c7112b"/><path d="M2577.511,576.173a3.164,3.164,0,1,1,3.17,3.043A3.024,3.024,0,0,1,2577.511,576.173Zm5.474,0a2.312,2.312,0,1,0-2.3,2.285A2.234,2.234,0,0,0,2582.985,576.173Z" transform="translate(-2477.175 -550.82)" fill="#c7112b"/><path d="M2765.576,576.1h.818v2.319a3.516,3.516,0,0,1-2.252.756,3.046,3.046,0,1,1,.017-6.086,2.981,2.981,0,0,1,2.286.918l-.529.529a2.358,2.358,0,0,0-1.725-.689,2.288,2.288,0,1,0-.009,4.573,2.516,2.516,0,0,0,1.394-.383Z" transform="translate(-2653.493 -550.781)" fill="#c7112b"/><path d="M2946.316,580.081v.74H2942v-5.95h4.2v.74h-3.347v1.83h2.983v.722h-2.983v1.921Z" transform="translate(-2827.477 -552.492)" fill="#c7112b"/><path d="M3068.24,575.61h-2.04v-.74h4.922v.74h-2.04v5.21h-.842Z" transform="translate(-2946.841 -552.492)" fill="#c7112b"/><path d="M3221.509,574.87v5.95h-.852v-2.652h-3.417v2.652h-.85v-5.95h.85v2.559h3.417V574.87Z" transform="translate(-3091.185 -552.492)" fill="#c7112b"/><path d="M3398.058,580.081v.74h-4.318v-5.95h4.2v.74h-3.348v1.83h2.983v.722h-2.983v1.921Z" transform="translate(-3261.631 -552.492)" fill="#c7112b"/><path d="M3543.98,580.82l-1.285-1.827c-.119.009-.247.017-.374.017h-1.47v1.811H3540v-5.95h2.321c1.546,0,2.482.782,2.482,2.074a1.878,1.878,0,0,1-1.31,1.879l1.412,2Zm-.025-3.876c0-.85-.569-1.334-1.657-1.334h-1.445v2.677h1.445c1.09,0,1.657-.492,1.657-1.343Z" transform="translate(-3402.198 -552.492)" fill="#c7112b"/><path d="M986.45,487.195q13.034-.121,26.067-.151l6.517-.019,6.517-.014,13.033-.011,13.034.01,6.517.014,6.517.019q13.034.043,26.067.152-13.034.121-26.067.152l-6.517.019-6.517.014-13.034.01-13.033-.011-6.517-.014-6.517-.019Q999.484,487.3,986.45,487.195Z" transform="translate(-948.05 -468.042)" fill="#c7112b"/><path d="M998.145,5.89h.467V9.67h-.467a2.219,2.219,0,0,0-.615-1.246,3.187,3.187,0,0,0-1.578-.252h-3.891v5.569a1.08,1.08,0,0,0,.26.823,1.31,1.31,0,0,0,.889.239h2.741a8.638,8.638,0,0,0,2.032-.159,1.978,1.978,0,0,0,.95-.591,5.634,5.634,0,0,0,.829-1.4h.467l-.722,2.9h-11.3v-.447a1.6,1.6,0,0,0,1.417-.538,3.621,3.621,0,0,0,.361-1.905V2.934a3.613,3.613,0,0,0-.374-1.952,1.61,1.61,0,0,0-1.4-.531V0h11.3V2.6h-.294a2.627,2.627,0,0,0-.689-1.479A3.411,3.411,0,0,0,996.58.756H992.06V7.415h4.386A1.771,1.771,0,0,0,997.67,7.1,2.206,2.206,0,0,0,998.145,5.89Z" transform="translate(-949.742)" fill="#c7112b"/><path d="M1333.092,145.85v1.923a4.768,4.768,0,0,1,3.5-1.923,3.151,3.151,0,0,1,2.34.95,3.408,3.408,0,0,1,.934,2.5v4.344a1.857,1.857,0,0,0,.334,1.315,1.951,1.951,0,0,0,1.31.319v.451h-5.173v-.451a2.48,2.48,0,0,0,1.317-.246,1.084,1.084,0,0,0,.354-.95V149.05a2.152,2.152,0,0,0-.608-1.608,2.127,2.127,0,0,0-1.557-.6q-1.362,0-2.754,1.884v4.706a2.421,2.421,0,0,0,.311,1.522,1.859,1.859,0,0,0,1.306.326v.451H1329.6v-.451q1.111,0,1.363-.353a2.914,2.914,0,0,0,.254-1.5V148a1.533,1.533,0,0,0-.307-1.137,2.131,2.131,0,0,0-1.311-.272v-.452l3.022-.292Z" transform="translate(-1277.842 -140.172)" fill="#c7112b"/><path d="M1655.292,145.85v1.923a4.767,4.767,0,0,1,3.5-1.923,3.15,3.15,0,0,1,2.34.95,3.416,3.416,0,0,1,.936,2.5v4.344a1.859,1.859,0,0,0,.334,1.315,1.952,1.952,0,0,0,1.311.319v.451h-5.174v-.451a2.48,2.48,0,0,0,1.317-.246,1.085,1.085,0,0,0,.354-.95V149.05a2.152,2.152,0,0,0-.608-1.608,2.126,2.126,0,0,0-1.557-.6q-1.362,0-2.754,1.884v4.706a2.422,2.422,0,0,0,.311,1.522,1.86,1.86,0,0,0,1.307.326v.451h-5.11v-.451q1.11,0,1.362-.353a2.912,2.912,0,0,0,.254-1.5V148a1.532,1.532,0,0,0-.307-1.137,2.132,2.132,0,0,0-1.311-.272v-.452l3.022-.292Z" transform="translate(-1587.5 -140.172)" fill="#c7112b"/><path d="M1902.137,0V.478q-1.727,0-2.851,3.024l-4.628,12.27h-.445l-4.857-12.628a6.7,6.7,0,0,0-1.178-2.209,2.112,2.112,0,0,0-1.418-.484V0h5.7V.451q-1.373,0-1.373,1.048a2.154,2.154,0,0,0,.174.783l3.84,10.043,3.643-9.7a3.219,3.219,0,0,0,.228-1.075q0-1.1-1.4-1.1V0Z" transform="translate(-1813.313)" fill="#c7112b"/><path d="M2293.933,23.027h.467v8.1a1.288,1.288,0,0,0,.347,1.063,2.2,2.2,0,0,0,1.271.266v.451h-5.308v-.451a2.775,2.775,0,0,0,1.5-.26,1.316,1.316,0,0,0,.334-1.071V25.207a1.585,1.585,0,0,0-.307-1.157,2.593,2.593,0,0,0-1.524-.279v-.451Zm-.428-4.975a1.142,1.142,0,0,1,.837.338,1.122,1.122,0,0,1,.341.829,1.156,1.156,0,0,1-.347.842,1.126,1.126,0,0,1-.829.35,1.186,1.186,0,0,1-.857-.35,1.138,1.138,0,0,1-.361-.842,1.1,1.1,0,0,1,.355-.829,1.2,1.2,0,0,1,.862-.338Z" transform="translate(-2201.539 -17.35)" fill="#c7112b"/><path d="M2475.45,145.773v2.958h-.548a2.871,2.871,0,0,0-.8-1.771,2.226,2.226,0,0,0-1.618-.656,1.788,1.788,0,0,0-1.164.358,1.167,1.167,0,0,0-.441.955,1.474,1.474,0,0,0,.407,1.028,6.017,6.017,0,0,0,1.772,1.068,6.339,6.339,0,0,1,2.333,1.526,2.761,2.761,0,0,1,.568,1.752,2.816,2.816,0,0,1-.908,2.089,2.987,2.987,0,0,1-2.153.882,4.519,4.519,0,0,1-1.7-.464,2.551,2.551,0,0,0-.762-.252.563.563,0,0,0-.429.186.763.763,0,0,0-.2.464h-.467v-3.278h.467a3.532,3.532,0,0,0,1.123,2.053,2.939,2.939,0,0,0,1.992.759,1.664,1.664,0,0,0,1.211-.478,1.59,1.59,0,0,0,.488-1.183,1.7,1.7,0,0,0-.45-1.176,6.142,6.142,0,0,0-1.947-1.15,6.324,6.324,0,0,1-2.219-1.369,2.307,2.307,0,0,1-.534-1.54,2.573,2.573,0,0,1,.876-1.946,2.944,2.944,0,0,1,2.079-.817,3.263,3.263,0,0,1,1.217.265,2.167,2.167,0,0,0,.762.186.612.612,0,0,0,.575-.451Z" transform="translate(-2373.215 -140.096)" fill="#c7112b"/><path d="M2675.222,23.027h.467v8.1a1.287,1.287,0,0,0,.348,1.063,2.2,2.2,0,0,0,1.27.266v.451H2672v-.451a2.775,2.775,0,0,0,1.5-.26,1.32,1.32,0,0,0,.335-1.071V25.207a1.582,1.582,0,0,0-.308-1.157A2.592,2.592,0,0,0,2672,23.77v-.451Zm-.428-4.975a1.144,1.144,0,0,1,.836.338,1.124,1.124,0,0,1,.34.829,1.157,1.157,0,0,1-.347.842,1.126,1.126,0,0,1-.829.35,1.185,1.185,0,0,1-.856-.35,1.135,1.135,0,0,1-.362-.842,1.1,1.1,0,0,1,.354-.829A1.2,1.2,0,0,1,2674.794,18.053Z" transform="translate(-2567.986 -17.35)" fill="#c7112b"/><path d="M2858.439,150.917a4.812,4.812,0,0,1-1.518,3.628,5.673,5.673,0,0,1-7.582,0,5.135,5.135,0,0,1-.008-7.283,5.691,5.691,0,0,1,7.6,0A4.86,4.86,0,0,1,2858.439,150.917Zm-2.019.007a5.686,5.686,0,0,0-.883-3.321,2.944,2.944,0,0,0-4.813-.026,6.739,6.739,0,0,0-.007,6.657,2.966,2.966,0,0,0,4.827-.014,5.631,5.631,0,0,0,.876-3.294Z" transform="translate(-2736.963 -140.134)" fill="#c7112b"/><path d="M3155.642,145.85v1.923a4.77,4.77,0,0,1,3.5-1.923,3.151,3.151,0,0,1,2.34.95,3.413,3.413,0,0,1,.936,2.5v4.344a1.859,1.859,0,0,0,.334,1.315,1.951,1.951,0,0,0,1.311.319v.451h-5.175v-.451a2.481,2.481,0,0,0,1.317-.246,1.086,1.086,0,0,0,.354-.95V149.05a2.15,2.15,0,0,0-.609-1.608,2.125,2.125,0,0,0-1.557-.6q-1.362,0-2.754,1.884v4.706a2.424,2.424,0,0,0,.312,1.522,1.86,1.86,0,0,0,1.307.326v.451h-5.109v-.451q1.11,0,1.362-.353a2.893,2.893,0,0,0,.255-1.5V148a1.532,1.532,0,0,0-.308-1.137,2.131,2.131,0,0,0-1.311-.272v-.452l3.022-.292Z" transform="translate(-3029.446 -140.172)" fill="#c7112b"/><path d="M3501.141,145.773v2.958h-.549a2.871,2.871,0,0,0-.8-1.771,2.224,2.224,0,0,0-1.618-.656,1.792,1.792,0,0,0-1.164.358,1.168,1.168,0,0,0-.441.955,1.471,1.471,0,0,0,.409,1.028,6,6,0,0,0,1.772,1.068,6.337,6.337,0,0,1,2.333,1.526,2.771,2.771,0,0,1,.568,1.752,2.814,2.814,0,0,1-.909,2.089,2.985,2.985,0,0,1-2.153.882,4.514,4.514,0,0,1-1.7-.464,2.542,2.542,0,0,0-.763-.252.561.561,0,0,0-.428.186.762.762,0,0,0-.2.464h-.467v-3.277h.467a3.539,3.539,0,0,0,1.124,2.053,2.939,2.939,0,0,0,1.992.759,1.661,1.661,0,0,0,1.21-.478,1.59,1.59,0,0,0,.488-1.183,1.7,1.7,0,0,0-.45-1.176,6.139,6.139,0,0,0-1.946-1.15,6.315,6.315,0,0,1-2.219-1.369,2.312,2.312,0,0,1-.534-1.54,2.575,2.575,0,0,1,.875-1.946,2.944,2.944,0,0,1,2.08-.817,3.271,3.271,0,0,1,1.218.265,2.166,2.166,0,0,0,.762.186.615.615,0,0,0,.574-.451Z" transform="translate(-3358.978 -140.096)" fill="#c7112b"/></svg>