<svg xmlns="http://www.w3.org/2000/svg" width="10.782" height="10.315" viewBox="0 0 10.782 10.315"><path d="M1246.968,1321.875l-2.63,1.383a.646.646,0,0,1-.874-.273.625.625,0,0,1-.064-.41l.5-2.93-2.13-2.075a.645.645,0,0,1-.009-.91.706.706,0,0,1,.364-.191l2.949-.428,1.31-2.667a.651.651,0,0,1,.865-.291.667.667,0,0,1,.3.291l1.311,2.667,2.949.428a.661.661,0,0,1,.546.737.71.71,0,0,1-.191.364l-2.13,2.075.5,2.93a.637.637,0,0,1-.528.746.645.645,0,0,1-.41-.064Z" transform="translate(-1241.579 -1313.018)" fill="#ffa800" fill-rule="evenodd"/></svg>